<svg id="visual" viewBox="0 0 900 550"
	xmlns="http://www.w3.org/2000/svg"
	xmlns:xlink="http://www.w3.org/1999/xlink" version="1.1">
	<path d="M0 477L11.5 473.3C23 469.7 46 462.3 69 460C92 457.7 115 460.3 138.2 461.8C161.3 463.3 184.7 463.7 207.8 466.3C231 469 254 474 277 474.7C300 475.3 323 471.7 346 470.5C369 469.3 392 470.7 415.2 472.8C438.3 475 461.7 478 484.8 478.5C508 479 531 477 554 475C577 473 600 471 623 470.8C646 470.7 669 472.3 692.2 468.5C715.3 464.7 738.7 455.3 761.8 455.2C785 455 808 464 831 469.8C854 475.7 877 478.3 888.5 479.7L900 481L900 601L888.5 601C877 601 854 601 831 601C808 601 785 601 761.8 601C738.7 601 715.3 601 692.2 601C669 601 646 601 623 601C600 601 577 601 554 601C531 601 508 601 484.8 601C461.7 601 438.3 601 415.2 601C392 601 369 601 346 601C323 601 300 601 277 601C254 601 231 601 207.8 601C184.7 601 161.3 601 138.2 601C115 601 92 601 69 601C46 601 23 601 11.5 601L0 601Z" fill="#181879"></path>
	<path d="M0 470L11.5 474.8C23 479.7 46 489.3 69 491.2C92 493 115 487 138.2 483.2C161.3 479.3 184.7 477.7 207.8 477.7C231 477.7 254 479.3 277 483.2C300 487 323 493 346 494.5C369 496 392 493 415.2 490.7C438.3 488.3 461.7 486.7 484.8 488.7C508 490.7 531 496.3 554 494.2C577 492 600 482 623 477C646 472 669 472 692.2 473C715.3 474 738.7 476 761.8 479.2C785 482.3 808 486.7 831 486.3C854 486 877 481 888.5 478.5L900 476L900 601L888.5 601C877 601 854 601 831 601C808 601 785 601 761.8 601C738.7 601 715.3 601 692.2 601C669 601 646 601 623 601C600 601 577 601 554 601C531 601 508 601 484.8 601C461.7 601 438.3 601 415.2 601C392 601 369 601 346 601C323 601 300 601 277 601C254 601 231 601 207.8 601C184.7 601 161.3 601 138.2 601C115 601 92 601 69 601C46 601 23 601 11.5 601L0 601Z" fill="#1a288c"></path>
	<path d="M0 502L11.5 500.8C23 499.7 46 497.3 69 497.5C92 497.7 115 500.3 138.2 503.3C161.3 506.3 184.7 509.7 207.8 512.3C231 515 254 517 277 516.7C300 516.3 323 513.7 346 510.7C369 507.7 392 504.3 415.2 504.5C438.3 504.7 461.7 508.3 484.8 507C508 505.7 531 499.3 554 496.2C577 493 600 493 623 494.2C646 495.3 669 497.7 692.2 500.5C715.3 503.3 738.7 506.7 761.8 509.5C785 512.3 808 514.7 831 515.7C854 516.7 877 516.3 888.5 516.2L900 516L900 601L888.5 601C877 601 854 601 831 601C808 601 785 601 761.8 601C738.7 601 715.3 601 692.2 601C669 601 646 601 623 601C600 601 577 601 554 601C531 601 508 601 484.8 601C461.7 601 438.3 601 415.2 601C392 601 369 601 346 601C323 601 300 601 277 601C254 601 231 601 207.8 601C184.7 601 161.3 601 138.2 601C115 601 92 601 69 601C46 601 23 601 11.5 601L0 601Z" fill="#1a389f"></path>
	<path d="M0 537L11.5 537C23 537 46 537 69 536.5C92 536 115 535 138.2 532C161.3 529 184.7 524 207.8 524.2C231 524.3 254 529.7 277 533.3C300 537 323 539 346 539C369 539 392 537 415.2 535.8C438.3 534.7 461.7 534.3 484.8 535.5C508 536.7 531 539.3 554 537.7C577 536 600 530 623 529.8C646 529.7 669 535.3 692.2 534.2C715.3 533 738.7 525 761.8 525.2C785 525.3 808 533.7 831 535.5C854 537.3 877 532.7 888.5 530.3L900 528L900 601L888.5 601C877 601 854 601 831 601C808 601 785 601 761.8 601C738.7 601 715.3 601 692.2 601C669 601 646 601 623 601C600 601 577 601 554 601C531 601 508 601 484.8 601C461.7 601 438.3 601 415.2 601C392 601 369 601 346 601C323 601 300 601 277 601C254 601 231 601 207.8 601C184.7 601 161.3 601 138.2 601C115 601 92 601 69 601C46 601 23 601 11.5 601L0 601Z" fill="#1948b2"></path>
	<path d="M0 548L11.5 549.2C23 550.3 46 552.7 69 554.3C92 556 115 557 138.2 556.3C161.3 555.7 184.7 553.3 207.8 552C231 550.7 254 550.3 277 549.7C300 549 323 548 346 549.3C369 550.7 392 554.3 415.2 557C438.3 559.7 461.7 561.3 484.8 561.3C508 561.3 531 559.7 554 557.7C577 555.7 600 553.3 623 553.5C646 553.7 669 556.3 692.2 554.7C715.3 553 738.7 547 761.8 546.2C785 545.3 808 549.7 831 551.5C854 553.3 877 552.7 888.5 552.3L900 552L900 601L888.5 601C877 601 854 601 831 601C808 601 785 601 761.8 601C738.7 601 715.3 601 692.2 601C669 601 646 601 623 601C600 601 577 601 554 601C531 601 508 601 484.8 601C461.7 601 438.3 601 415.2 601C392 601 369 601 346 601C323 601 300 601 277 601C254 601 231 601 207.8 601C184.7 601 161.3 601 138.2 601C115 601 92 601 69 601C46 601 23 601 11.5 601L0 601Z" fill="#1558c5"></path>
	<path d="M0 566L11.5 568.5C23 571 46 576 69 577C92 578 115 575 138.2 575.3C161.3 575.7 184.7 579.3 207.8 578C231 576.7 254 570.3 277 567.8C300 565.3 323 566.7 346 569.8C369 573 392 578 415.2 577.8C438.3 577.7 461.7 572.3 484.8 570.2C508 568 531 569 554 568.7C577 568.3 600 566.7 623 567.2C646 567.7 669 570.3 692.2 572C715.3 573.7 738.7 574.3 761.8 573.8C785 573.3 808 571.7 831 570C854 568.3 877 566.7 888.5 565.8L900 565L900 601L888.5 601C877 601 854 601 831 601C808 601 785 601 761.8 601C738.7 601 715.3 601 692.2 601C669 601 646 601 623 601C600 601 577 601 554 601C531 601 508 601 484.8 601C461.7 601 438.3 601 415.2 601C392 601 369 601 346 601C323 601 300 601 277 601C254 601 231 601 207.8 601C184.7 601 161.3 601 138.2 601C115 601 92 601 69 601C46 601 23 601 11.5 601L0 601Z" fill="#0d68d8"></path>
</svg>