<?xml version="1.0" encoding="utf-8"?>
<!-- Generator: Adobe Illustrator 26.3.1, SVG Export Plug-In . SVG Version: 6.00 Build 0)  -->
<svg version="1.1" id="Layer_1"
	xmlns="http://www.w3.org/2000/svg"
	xmlns:xlink="http://www.w3.org/1999/xlink" x="0px" y="0px" viewBox="0 0 700 700" style="enable-background:new 0 0 700 700;" xml:space="preserve">
	<path d="M350,49C206.9,49,91,164.9,91,308v21c0,22.5,9.5,41.8,22.5,55.1S142.9,406,161,406h56v91c0,18.6-11.1,28-28,28
	c-9,0-17.8-6.4-23.4-16.8c-3.5-6.6-10.3-10.9-17.8-11.2c-7.5-0.3-14.6,3.5-18.6,9.8c-4,6.4-4.3,14.4-0.8,21
	c11.3,21.2,33,39.2,60.6,39.2c37.4,0,70-30.4,70-70v-91h28v161c0,18.6-11.1,28-28,28c-8.1,0-15.6-3.2-19.9-7.7
	c-3.8-4.4-9.2-7.1-15-7.4c-5.8-0.3-11.4,1.8-15.6,5.9c-4.2,4-6.5,9.6-6.4,15.4c0.1,5.8,2.5,11.3,6.8,15.2
	c13.3,13.8,31.7,20.6,50.1,20.6c37.4,0,70-30.4,70-70V406h42v161c0,39.6,32.6,70,70,70c18.4,0,36.8-6.8,50.1-20.6
	c4.3-3.9,6.7-9.4,6.8-15.2c0.1-5.8-2.3-11.4-6.4-15.4c-4.2-4-9.8-6.1-15.6-5.9c-5.8,0.3-11.2,2.9-15,7.4c-4.3,4.4-11.8,7.7-19.9,7.7
	c-16.9,0-28-9.4-28-28V406h28v91c0,39.6,32.6,70,70,70c27.6,0,49.3-17.9,60.6-39.2c3.5-6.6,3.2-14.7-0.8-21
	c-4-6.4-11.1-10.1-18.6-9.8c-7.5,0.3-14.3,4.5-17.8,11.2C528.8,518.6,520,525,511,525c-16.9,0-28-9.4-28-28v-91h56
	c18.1,0,34.4-8.6,47.5-21.9S609,351.5,609,329v-21C609,164.9,493.1,49,350,49L350,49z M350,91c120.6,0,217,96.4,217,217v21
	c0,10.7-4.5,19.2-10.7,25.6S541.9,364,539,364H161c-2.9,0-11.1-3-17.3-9.4S133,339.7,133,329v-21C133,187.4,229.4,91,350,91z"/>
</svg>
