<?xml version="1.0" standalone="no"?>
<!DOCTYPE svg PUBLIC "-//W3C//DTD SVG 20010904//EN"
 "http://www.w3.org/TR/2001/REC-SVG-20010904/DTD/svg10.dtd">
<svg version="1.0" xmlns="http://www.w3.org/2000/svg"
 width="1080.000000pt" height="1080.000000pt" viewBox="0 0 1080.000000 1080.000000"
 preserveAspectRatio="xMidYMid meet">
<metadata>
Created by potrace 1.14, written by Peter Selinger 2001-2017
</metadata>
<g transform="translate(0.000000,1080.000000) scale(0.100000,-0.100000)"
fill="#000000" stroke="none">
<path d="M5128 10795 c-1 -1 -46 -6 -98 -9 -197 -13 -422 -39 -560 -66 -30 -6
-71 -13 -90 -16 -66 -11 -368 -83 -473 -113 -521 -152 -1015 -379 -1457 -669
-130 -85 -329 -228 -392 -280 -12 -11 -50 -42 -84 -69 -141 -112 -450 -407
-594 -568 -423 -470 -800 -1083 -1017 -1655 -71 -187 -179 -528 -208 -659 -53
-232 -88 -416 -100 -521 -3 -25 -8 -58 -10 -75 -3 -16 -7 -55 -10 -85 -4 -30
-8 -68 -10 -85 -26 -191 -26 -826 0 -1042 2 -16 6 -57 9 -93 4 -36 8 -76 10
-90 3 -14 9 -59 15 -100 167 -1132 694 -2181 1506 -2996 232 -233 321 -312
545 -485 426 -328 894 -589 1395 -776 141 -53 300 -105 405 -134 164 -45 297
-79 335 -85 22 -3 42 -7 45 -9 3 -2 46 -11 95 -19 50 -9 100 -18 111 -20 58
-12 201 -31 384 -52 117 -13 279 -19 525 -19 313 0 397 5 705 41 82 9 282 45
424 75 172 37 161 34 216 49 25 7 50 13 55 14 67 15 387 119 505 164 315 121
678 298 900 440 224 142 503 338 560 393 8 8 40 34 70 57 203 159 554 514 751
757 134 166 419 568 419 591 0 3 15 28 33 57 69 107 287 528 287 552 0 3 12
30 26 62 107 234 270 727 310 938 2 11 10 52 18 90 20 98 43 222 51 276 3 25
8 57 10 70 8 47 14 95 20 154 4 33 8 76 11 95 25 216 25 876 -1 1042 -2 13 -6
55 -10 93 -4 39 -8 77 -10 85 -2 8 -6 38 -9 65 -4 28 -9 61 -11 75 -2 14 -7
41 -10 60 -69 420 -224 937 -386 1285 -18 39 -33 72 -33 75 -2 17 -132 267
-204 395 -125 220 -339 540 -455 681 -9 11 -42 51 -73 89 -149 185 -462 506
-649 666 -707 607 -1563 1026 -2465 1204 -41 8 -86 17 -100 20 -27 5 -94 16
-125 20 -11 2 -54 8 -95 14 -116 16 -156 21 -330 37 -55 6 -677 14 -682 9z"/>
</g>
</svg>
